<svg width="695" height="697" viewBox="0 0 695 697" fill="none" xmlns="http://www.w3.org/2000/svg">
<path d="M319 0C330.046 0 339 8.95431 339 20V149.5C339.833 152.833 343.5 159.6 351.5 160C356.405 160.245 359.93 158.245 362.193 156.01C365.112 150.539 369.762 147 375 147C383.837 147 391 157.074 391 169.5C391 181.926 383.837 192 375 192C369.042 192 363.846 187.421 361.092 180.629C358.956 179.146 355.851 178.122 351.5 178.5C342.3 179.3 339.333 185.5 339 188.5V319C339 330.046 330.046 339 319 339H187.793C198.104 334.101 205 325.186 205 315C205 299.536 189.106 287 169.5 287C149.894 287 134 299.536 134 315C134 325.186 140.896 334.101 151.207 339H20C8.95431 339 0 330.046 0 319V20C0 8.95431 8.95431 0 20 0H319Z" fill="#6C5847"/>
<path d="M695 319C695 330.046 686.046 339 675 339H545.5C542.167 339.833 535.4 343.5 535 351.5C534.755 356.405 536.755 359.93 538.99 362.193C544.461 365.112 548 369.762 548 375C548 383.837 537.926 391 525.5 391C513.074 391 503 383.837 503 375C503 369.042 507.579 363.846 514.371 361.092C515.854 358.956 516.878 355.851 516.5 351.5C515.7 342.3 509.5 339.333 506.5 339H376C364.954 339 356 330.046 356 319V187.793C360.899 198.104 369.814 205 380 205C395.464 205 408 189.106 408 169.5C408 149.894 395.464 134 380 134C369.814 134 360.899 140.896 356 151.207V20C356 8.95431 364.954 0 376 0H675C686.046 0 695 8.95431 695 20V319Z" fill="#479626"/>
<path d="M375 696C363.954 696 355 687.046 355 676V546.5C354.167 543.167 350.5 536.4 342.5 536C337.595 535.755 334.07 537.755 331.807 539.99C328.888 545.461 324.238 549 319 549C310.163 549 303 538.926 303 526.5C303 514.074 310.163 504 319 504C324.958 504 330.154 508.579 332.908 515.371C335.044 516.854 338.149 517.878 342.5 517.5C351.7 516.7 354.667 510.5 355 507.5V377C355 365.954 363.954 357 375 357H506.207C495.896 361.899 489 370.814 489 381C489 396.464 504.894 409 524.5 409C544.106 409 560 396.464 560 381C560 370.814 553.104 361.899 542.793 357H674C685.046 357 694 365.954 694 377V676C694 687.046 685.046 696 674 696H375Z" fill="#D5B39D"/>
<path d="M0 378C0 366.954 8.95431 358 20 358H149.5C152.833 357.167 159.6 353.5 160 345.5C160.245 340.595 158.245 337.07 156.01 334.807C150.539 331.888 147 327.238 147 322C147 313.163 157.074 306 169.5 306C181.926 306 192 313.163 192 322C192 327.958 187.421 333.154 180.629 335.908C179.146 338.044 178.122 341.149 178.5 345.5C179.3 354.7 185.5 357.667 188.5 358H319C330.046 358 339 366.954 339 378V509.207C334.101 498.896 325.186 492 315 492C299.536 492 287 507.894 287 527.5C287 547.106 299.536 563 315 563C325.186 563 334.101 556.104 339 545.793V677C339 688.046 330.046 697 319 697H20C8.95431 697 0 688.046 0 677V378Z" fill="#FFAF27"/>
</svg>
