<svg width="639" height="178" viewBox="0 0 639 178" fill="none" xmlns="http://www.w3.org/2000/svg">
<path d="M3 148.7C5.4 148.7 7.13333 148.4 8.2 147.8C9.33333 147.133 9.9 145.633 9.9 143.3V83.8C9.9 81.4667 9.33333 80 8.2 79.4C7.13333 78.7333 5.4 78.4 3 78.4V77.1H27.8V78.4C25.4667 78.4 23.7333 78.7 22.6 79.3C21.5333 79.9 20.9667 81.3 20.9 83.5V111.8H51.6V83.8C51.6 81.4667 51.0333 80 49.9 79.4C48.7667 78.7333 47 78.4 44.6 78.4V77.1H69.5V78.4C67.1 78.4 65.3333 78.7333 64.2 79.4C63.1333 80 62.6 81.4667 62.6 83.8V143.5C62.6 145.767 63.1333 147.2 64.2 147.8C65.3333 148.4 67.1 148.7 69.5 148.7V150H44.6V148.7C47 148.7 48.7667 148.4 49.9 147.8C51.0333 147.133 51.6 145.633 51.6 143.3V113.1H20.9V144.3C21.0333 146.233 21.6667 147.467 22.8 148C23.9333 148.467 25.6 148.7 27.8 148.7V150H3V148.7ZM101.861 151.2C97.6609 151.2 93.9609 150.567 90.7609 149.3C87.6276 148.033 84.9943 146.267 82.8609 144C80.7276 141.667 79.1276 138.933 78.0609 135.8C76.9943 132.667 76.4609 129.267 76.4609 125.6C76.4609 122.267 77.0609 119.067 78.2609 116C79.4609 112.867 81.1943 110.067 83.4609 107.6C85.7943 105.133 88.5943 103.167 91.8609 101.7C95.1276 100.233 98.8609 99.5 103.061 99.5C106.061 99.5 108.761 100.033 111.161 101.1C113.561 102.1 115.561 103.5 117.161 105.3C118.828 107.033 120.094 109.067 120.961 111.4C121.828 113.733 122.261 116.233 122.261 118.9H86.5609C86.4943 119.367 86.4609 119.833 86.4609 120.3C86.4609 120.7 86.4609 121.133 86.4609 121.6C86.4609 125.067 86.8276 128.3 87.5609 131.3C88.3609 134.233 89.5609 136.767 91.1609 138.9C92.7609 141.033 94.7609 142.7 97.1609 143.9C99.6276 145.1 102.494 145.7 105.761 145.7C109.228 145.7 112.028 145.033 114.161 143.7C116.294 142.3 117.961 140.667 119.161 138.8C120.361 136.933 121.161 135 121.561 133C122.028 131 122.261 129.367 122.261 128.1H123.561C123.494 130.967 123.061 133.8 122.261 136.6C121.461 139.4 120.194 141.867 118.461 144C116.794 146.133 114.594 147.867 111.861 149.2C109.128 150.533 105.794 151.2 101.861 151.2ZM113.861 117.6C113.861 115.8 113.728 113.933 113.461 112C113.261 110.067 112.728 108.333 111.861 106.8C111.061 105.267 109.861 104 108.261 103C106.728 102 104.661 101.5 102.061 101.5C98.0609 101.5 94.6609 102.967 91.8609 105.9C89.1276 108.833 87.4276 112.733 86.7609 117.6H113.861ZM131.051 135.6C131.051 132.133 131.817 129.3 133.351 127.1C134.884 124.9 136.717 123.2 138.851 122C141.051 120.733 143.351 119.867 145.751 119.4C148.151 118.933 150.184 118.7 151.851 118.7C155.051 118.7 157.617 119 159.551 119.6C161.551 120.2 163.217 120.967 164.551 121.9V116C164.551 114.6 164.317 113.233 163.851 111.9C163.384 110.5 162.617 109.267 161.551 108.2C160.484 107.067 159.051 106.167 157.251 105.5C155.451 104.833 153.251 104.5 150.651 104.5C147.984 104.5 145.617 104.867 143.551 105.6C141.484 106.267 139.751 107.233 138.351 108.5C136.951 109.7 135.884 111.133 135.151 112.8C134.484 114.4 134.151 116.167 134.151 118.1H132.851C132.851 114.833 133.451 112.033 134.651 109.7C135.851 107.3 137.384 105.367 139.251 103.9C141.117 102.367 143.217 101.267 145.551 100.6C147.951 99.8667 150.284 99.5 152.551 99.5C155.951 99.5 159.017 99.9 161.751 100.7C164.484 101.5 166.784 102.633 168.651 104.1C170.584 105.567 172.051 107.333 173.051 109.4C174.051 111.4 174.551 113.6 174.551 116V140.3C174.551 142.9 174.851 144.933 175.451 146.4C176.117 147.867 177.417 148.6 179.351 148.6C180.551 148.6 181.551 148.333 182.351 147.8C183.151 147.2 183.784 146.5 184.251 145.7C184.784 144.833 185.151 143.933 185.351 143C185.617 142 185.751 141.1 185.751 140.3H187.051C187.051 141.7 186.884 143.067 186.551 144.4C186.217 145.667 185.617 146.833 184.751 147.9C183.884 148.9 182.717 149.7 181.251 150.3C179.784 150.9 177.917 151.2 175.651 151.2C171.517 151.2 168.617 150.433 166.951 148.9C165.351 147.367 164.551 144.9 164.551 141.5H164.151C163.217 143.233 162.084 144.733 160.751 146C159.484 147.2 158.084 148.2 156.551 149C155.084 149.733 153.551 150.267 151.951 150.6C150.417 151 148.917 151.2 147.451 151.2C144.851 151.2 142.517 150.8 140.451 150C138.451 149.267 136.751 148.2 135.351 146.8C133.951 145.4 132.884 143.767 132.151 141.9C131.417 139.967 131.051 137.867 131.051 135.6ZM152.051 145.7C153.651 145.7 155.217 145.433 156.751 144.9C158.284 144.367 159.617 143.567 160.751 142.5C161.884 141.433 162.784 140.1 163.451 138.5C164.184 136.9 164.551 135.033 164.551 132.9V123.7C162.951 122.367 160.951 121.4 158.551 120.8C156.217 120.2 153.984 119.967 151.851 120.1C149.917 120.233 148.251 120.7 146.851 121.5C145.517 122.233 144.417 123.2 143.551 124.4C142.684 125.533 142.051 126.833 141.651 128.3C141.251 129.7 141.051 131.1 141.051 132.5C141.051 136.567 141.951 139.8 143.751 142.2C145.617 144.533 148.384 145.7 152.051 145.7ZM207.335 100.7V111.2H207.735C208.268 110.133 208.868 108.933 209.535 107.6C210.202 106.2 211.068 104.9 212.135 103.7C213.268 102.5 214.635 101.5 216.235 100.7C217.835 99.9 219.768 99.5 222.035 99.5C223.568 99.5 224.868 99.6333 225.935 99.9C227.068 100.1 228.002 100.333 228.735 100.6C229.602 101 230.368 101.4 231.035 101.8L233.835 114.9H232.535C231.202 111.367 229.468 109 227.335 107.8C225.202 106.533 222.502 105.9 219.235 105.9C218.168 105.9 217.102 106 216.035 106.2C214.968 106.4 213.902 106.867 212.835 107.6C211.768 108.267 210.768 109.267 209.835 110.6C208.902 111.933 208.068 113.7 207.335 115.9V143.7C207.468 145.833 208.102 147.2 209.235 147.8C210.368 148.4 212.102 148.7 214.435 148.7V150H190.235V148.7C192.635 148.7 194.402 148.4 195.535 147.8C196.735 147.133 197.335 145.633 197.335 143.3V111.3C197.335 109.3 196.602 107.867 195.135 107C193.668 106.067 191.635 105.6 189.035 105.6V104.3L207.335 100.7ZM238.328 100.7C241.061 100.367 243.361 99.6333 245.228 98.5C247.095 97.3 248.661 95.9 249.928 94.3C251.195 92.7 252.161 90.9667 252.828 89.1C253.561 87.1667 254.095 85.2667 254.428 83.4H255.728V100.7H266.428V102H255.728V140.3C255.728 142.967 256.028 145 256.628 146.4C257.228 147.8 258.561 148.5 260.628 148.5C261.761 148.5 262.728 148.233 263.528 147.7C264.328 147.167 264.961 146.5 265.428 145.7C265.961 144.9 266.328 144.033 266.528 143.1C266.795 142.1 266.928 141.167 266.928 140.3H268.228C268.228 141.5 268.028 142.767 267.628 144.1C267.295 145.367 266.695 146.533 265.828 147.6C265.028 148.667 263.928 149.533 262.528 150.2C261.128 150.933 259.428 151.3 257.428 151.3C252.961 151.3 249.895 150.367 248.228 148.5C246.561 146.633 245.728 143.567 245.728 139.3V102H238.328V100.7ZM271.262 105.6V104.3L289.562 100.7V143.3C289.562 145.633 290.162 147.133 291.362 147.8C292.562 148.4 294.328 148.7 296.662 148.7V150H272.462V148.7C274.862 148.7 276.628 148.4 277.762 147.8C278.962 147.133 279.562 145.633 279.562 143.3V111.1C279.562 109.1 278.828 107.7 277.362 106.9C275.895 106.033 273.862 105.6 271.262 105.6ZM284.562 91.6C283.028 91.6 281.728 91.1 280.662 90.1C279.662 89.0333 279.162 87.7333 279.162 86.2C279.162 84.6667 279.662 83.4 280.662 82.4C281.728 81.3333 283.028 80.8 284.562 80.8C286.095 80.8 287.395 81.3333 288.462 82.4C289.528 83.4 290.062 84.6667 290.062 86.2C290.062 87.7333 289.528 89.0333 288.462 90.1C287.395 91.1 286.095 91.6 284.562 91.6ZM303.512 150V129.3H304.812C304.812 133.167 305.312 136.4 306.312 139C307.312 141.533 308.578 143.567 310.112 145.1C311.645 146.567 313.278 147.633 315.012 148.3C316.812 148.9 318.478 149.2 320.012 149.2C323.412 149.2 325.945 148.433 327.612 146.9C329.278 145.367 330.112 143.433 330.112 141.1C330.112 138.5 329.445 136.433 328.112 134.9C326.845 133.367 325.245 132.1 323.312 131.1C321.378 130.033 319.245 129.1 316.912 128.3C314.645 127.433 312.545 126.433 310.612 125.3C308.678 124.1 307.045 122.6 305.712 120.8C304.378 119 303.712 116.633 303.712 113.7C303.712 109.3 305.112 105.833 307.912 103.3C310.778 100.767 314.578 99.5 319.312 99.5C320.912 99.5 322.312 99.7 323.512 100.1C324.778 100.5 325.878 100.933 326.812 101.4C327.812 101.8 328.712 102.2 329.512 102.6C330.312 103 331.112 103.2 331.912 103.2C332.645 103.2 333.145 102.967 333.412 102.5C333.678 101.967 333.812 101.367 333.812 100.7H335.112L335.212 117H333.812C333.812 114.867 333.512 112.867 332.912 111C332.312 109.067 331.412 107.4 330.212 106C329.078 104.6 327.678 103.5 326.012 102.7C324.345 101.833 322.445 101.4 320.312 101.4C318.045 101.4 316.212 102.033 314.812 103.3C313.478 104.567 312.812 106.267 312.812 108.4C312.812 110.867 313.445 112.833 314.712 114.3C315.978 115.767 317.578 117.033 319.512 118.1C321.512 119.167 323.645 120.167 325.912 121.1C328.245 121.967 330.378 123.067 332.312 124.4C334.312 125.667 335.945 127.3 337.212 129.3C338.545 131.233 339.212 133.767 339.212 136.9C339.212 138.967 338.778 140.9 337.912 142.7C337.112 144.433 335.945 145.933 334.412 147.2C332.945 148.467 331.178 149.433 329.112 150.1C327.045 150.833 324.745 151.2 322.212 151.2C319.812 151.2 317.812 150.967 316.212 150.5C314.678 150.033 313.345 149.567 312.212 149.1C311.145 148.567 310.178 148.133 309.312 147.8C308.445 147.467 307.512 147.4 306.512 147.6C305.378 147.8 304.812 148.6 304.812 150H303.512ZM348.141 135.6C348.141 132.133 348.907 129.3 350.441 127.1C351.974 124.9 353.807 123.2 355.941 122C358.141 120.733 360.441 119.867 362.841 119.4C365.241 118.933 367.274 118.7 368.941 118.7C372.141 118.7 374.707 119 376.641 119.6C378.641 120.2 380.307 120.967 381.641 121.9V116C381.641 114.6 381.407 113.233 380.941 111.9C380.474 110.5 379.707 109.267 378.641 108.2C377.574 107.067 376.141 106.167 374.341 105.5C372.541 104.833 370.341 104.5 367.741 104.5C365.074 104.5 362.707 104.867 360.641 105.6C358.574 106.267 356.841 107.233 355.441 108.5C354.041 109.7 352.974 111.133 352.241 112.8C351.574 114.4 351.241 116.167 351.241 118.1H349.941C349.941 114.833 350.541 112.033 351.741 109.7C352.941 107.3 354.474 105.367 356.341 103.9C358.207 102.367 360.307 101.267 362.641 100.6C365.041 99.8667 367.374 99.5 369.641 99.5C373.041 99.5 376.107 99.9 378.841 100.7C381.574 101.5 383.874 102.633 385.741 104.1C387.674 105.567 389.141 107.333 390.141 109.4C391.141 111.4 391.641 113.6 391.641 116V140.3C391.641 142.9 391.941 144.933 392.541 146.4C393.207 147.867 394.507 148.6 396.441 148.6C397.641 148.6 398.641 148.333 399.441 147.8C400.241 147.2 400.874 146.5 401.341 145.7C401.874 144.833 402.241 143.933 402.441 143C402.707 142 402.841 141.1 402.841 140.3H404.141C404.141 141.7 403.974 143.067 403.641 144.4C403.307 145.667 402.707 146.833 401.841 147.9C400.974 148.9 399.807 149.7 398.341 150.3C396.874 150.9 395.007 151.2 392.741 151.2C388.607 151.2 385.707 150.433 384.041 148.9C382.441 147.367 381.641 144.9 381.641 141.5H381.241C380.307 143.233 379.174 144.733 377.841 146C376.574 147.2 375.174 148.2 373.641 149C372.174 149.733 370.641 150.267 369.041 150.6C367.507 151 366.007 151.2 364.541 151.2C361.941 151.2 359.607 150.8 357.541 150C355.541 149.267 353.841 148.2 352.441 146.8C351.041 145.4 349.974 143.767 349.241 141.9C348.507 139.967 348.141 137.867 348.141 135.6ZM369.141 145.7C370.741 145.7 372.307 145.433 373.841 144.9C375.374 144.367 376.707 143.567 377.841 142.5C378.974 141.433 379.874 140.1 380.541 138.5C381.274 136.9 381.641 135.033 381.641 132.9V123.7C380.041 122.367 378.041 121.4 375.641 120.8C373.307 120.2 371.074 119.967 368.941 120.1C367.007 120.233 365.341 120.7 363.941 121.5C362.607 122.233 361.507 123.2 360.641 124.4C359.774 125.533 359.141 126.833 358.741 128.3C358.341 129.7 358.141 131.1 358.141 132.5C358.141 136.567 359.041 139.8 360.841 142.2C362.707 144.533 365.474 145.7 369.141 145.7ZM424.425 100.7V108.1C425.158 106.9 426.025 105.8 427.025 104.8C428.025 103.733 429.158 102.833 430.425 102.1C431.758 101.3 433.258 100.667 434.925 100.2C436.592 99.7333 438.525 99.5 440.725 99.5C442.458 99.5 444.258 99.7667 446.125 100.3C447.992 100.767 449.692 101.6 451.225 102.8C452.758 104 453.992 105.633 454.925 107.7C455.925 109.767 456.425 112.4 456.425 115.6V143.2C456.425 145.533 457.025 147.033 458.225 147.7C459.425 148.367 461.192 148.7 463.525 148.7V150H439.425V148.7C441.825 148.7 443.592 148.4 444.725 147.8C445.858 147.133 446.425 145.633 446.425 143.3V114C446.425 110.133 445.758 107.233 444.425 105.3C443.158 103.3 440.825 102.3 437.425 102.3C435.692 102.3 434.025 102.633 432.425 103.3C430.892 103.9 429.525 104.733 428.325 105.8C427.125 106.8 426.158 108 425.425 109.4C424.758 110.733 424.425 112.133 424.425 113.6V143.3C424.425 145.633 425.192 147.133 426.725 147.8C428.325 148.4 430.258 148.7 432.525 148.7V150H407.325V148.7C409.792 148.7 411.592 148.4 412.725 147.8C413.858 147.133 414.425 145.633 414.425 143.3V111.1C414.425 109.1 413.692 107.7 412.225 106.9C410.758 106.033 408.725 105.6 406.125 105.6V104.3L424.425 100.7ZM469.918 150V129.3H471.218C471.218 133.167 471.718 136.4 472.718 139C473.718 141.533 474.985 143.567 476.518 145.1C478.051 146.567 479.685 147.633 481.418 148.3C483.218 148.9 484.885 149.2 486.418 149.2C489.818 149.2 492.351 148.433 494.018 146.9C495.685 145.367 496.518 143.433 496.518 141.1C496.518 138.5 495.851 136.433 494.518 134.9C493.251 133.367 491.651 132.1 489.718 131.1C487.785 130.033 485.651 129.1 483.318 128.3C481.051 127.433 478.951 126.433 477.018 125.3C475.085 124.1 473.451 122.6 472.118 120.8C470.785 119 470.118 116.633 470.118 113.7C470.118 109.3 471.518 105.833 474.318 103.3C477.185 100.767 480.985 99.5 485.718 99.5C487.318 99.5 488.718 99.7 489.918 100.1C491.185 100.5 492.285 100.933 493.218 101.4C494.218 101.8 495.118 102.2 495.918 102.6C496.718 103 497.518 103.2 498.318 103.2C499.051 103.2 499.551 102.967 499.818 102.5C500.085 101.967 500.218 101.367 500.218 100.7H501.518L501.618 117H500.218C500.218 114.867 499.918 112.867 499.318 111C498.718 109.067 497.818 107.4 496.618 106C495.485 104.6 494.085 103.5 492.418 102.7C490.751 101.833 488.851 101.4 486.718 101.4C484.451 101.4 482.618 102.033 481.218 103.3C479.885 104.567 479.218 106.267 479.218 108.4C479.218 110.867 479.851 112.833 481.118 114.3C482.385 115.767 483.985 117.033 485.918 118.1C487.918 119.167 490.051 120.167 492.318 121.1C494.651 121.967 496.785 123.067 498.718 124.4C500.718 125.667 502.351 127.3 503.618 129.3C504.951 131.233 505.618 133.767 505.618 136.9C505.618 138.967 505.185 140.9 504.318 142.7C503.518 144.433 502.351 145.933 500.818 147.2C499.351 148.467 497.585 149.433 495.518 150.1C493.451 150.833 491.151 151.2 488.618 151.2C486.218 151.2 484.218 150.967 482.618 150.5C481.085 150.033 479.751 149.567 478.618 149.1C477.551 148.567 476.585 148.133 475.718 147.8C474.851 147.467 473.918 147.4 472.918 147.6C471.785 147.8 471.218 148.6 471.218 150H469.918Z" fill="#D0D0D0"/>
<path d="M556.08 62.6817C558.746 65.6295 550.732 76.4402 546.391 81.4771C545.747 81.9392 544.298 82.4865 543.659 80.9789C543.02 79.4714 538.898 75.6761 536.918 73.9669C532.37 66.8177 534.228 65.7889 533.371 62.3994C532.686 59.6877 534.501 46.6864 535.494 40.5247C535.54 39.2403 536.501 37.3616 539.983 40.1221C543.465 42.8826 547.912 48.3535 549.7 50.7439C553.39 54.5036 555.491 60.269 556.08 62.6817Z" fill="#D0D0D0"/>
<path d="M572.802 85.6195C570.822 89.0664 558.064 84.7851 551.932 82.2135C551.293 81.7436 550.325 80.5351 551.562 79.4611C552.798 78.3871 555.134 73.2949 556.147 70.883C561.541 64.3487 563.094 65.7978 566.052 63.9353C568.419 62.4453 581.345 60.1538 587.512 59.1943C588.748 58.8405 590.832 59.1741 589.282 63.3388C587.733 67.5036 583.904 73.4232 582.183 75.8624C579.748 80.5343 574.914 84.3137 572.802 85.6195Z" fill="#D0D0D0"/>
<path d="M554.61 109.04C550.72 108.223 550.849 94.7659 551.4 88.1396C551.65 87.387 552.5 86.0928 553.903 86.9366C555.307 87.7804 560.871 88.4284 563.478 88.647C571.36 91.7577 570.461 93.6821 573.147 95.9205C575.296 97.7113 581.469 109.296 584.287 114.865C585.006 115.931 585.332 118.016 580.893 117.829C576.453 117.643 569.64 115.83 566.788 114.948C561.593 114.075 556.504 110.646 554.61 109.04Z" fill="#D0D0D0"/>
<path d="M527.075 97.2246C526.651 93.2725 539.489 89.237 545.961 87.7133C546.754 87.7181 548.248 88.1267 547.879 89.7222C547.51 91.3177 548.613 96.8104 549.211 99.3574C548.688 107.814 546.58 107.554 545.281 110.8C544.242 113.397 535.132 122.849 530.706 127.25C529.915 128.262 528.033 129.217 526.838 124.937C525.644 120.657 525.262 113.618 525.22 110.633C524.444 105.422 526.134 99.5228 527.075 97.2246Z" fill="#D0D0D0"/>
<path d="M526.992 68.9156C530.619 67.2905 538.425 78.2533 541.874 83.9379C542.114 84.6934 542.187 86.2401 540.556 86.3824C538.924 86.5247 534.042 89.2714 531.804 90.6269C523.599 92.7428 523.195 90.6579 519.707 90.4255C516.916 90.2397 505.112 84.4959 499.558 81.6472C498.351 81.2072 496.861 79.7125 500.563 77.2538C504.264 74.7951 510.841 72.2567 513.667 71.2948C518.383 68.9465 524.515 68.7302 526.992 68.9156Z" fill="#D0D0D0"/>
</svg>
