<svg width="639" height="173" viewBox="0 0 639 173" fill="none" xmlns="http://www.w3.org/2000/svg">
<path d="M3 143.7C5.4 143.7 7.13333 143.4 8.2 142.8C9.33333 142.133 9.9 140.633 9.9 138.3V78.8C9.9 76.4667 9.33333 75 8.2 74.4C7.13333 73.7333 5.4 73.4 3 73.4V72.1H27.8V73.4C25.4667 73.4 23.7333 73.7 22.6 74.3C21.5333 74.9 20.9667 76.3 20.9 78.5V106.8H51.6V78.8C51.6 76.4667 51.0333 75 49.9 74.4C48.7667 73.7333 47 73.4 44.6 73.4V72.1H69.5V73.4C67.1 73.4 65.3333 73.7333 64.2 74.4C63.1333 75 62.6 76.4667 62.6 78.8V138.5C62.6 140.767 63.1333 142.2 64.2 142.8C65.3333 143.4 67.1 143.7 69.5 143.7V145H44.6V143.7C47 143.7 48.7667 143.4 49.9 142.8C51.0333 142.133 51.6 140.633 51.6 138.3V108.1H20.9V139.3C21.0333 141.233 21.6667 142.467 22.8 143C23.9333 143.467 25.6 143.7 27.8 143.7V145H3V143.7ZM101.861 146.2C97.6609 146.2 93.9609 145.567 90.7609 144.3C87.6276 143.033 84.9943 141.267 82.8609 139C80.7276 136.667 79.1276 133.933 78.0609 130.8C76.9943 127.667 76.4609 124.267 76.4609 120.6C76.4609 117.267 77.0609 114.067 78.2609 111C79.4609 107.867 81.1943 105.067 83.4609 102.6C85.7943 100.133 88.5943 98.1667 91.8609 96.7C95.1276 95.2333 98.8609 94.5 103.061 94.5C106.061 94.5 108.761 95.0333 111.161 96.1C113.561 97.1 115.561 98.5 117.161 100.3C118.828 102.033 120.094 104.067 120.961 106.4C121.828 108.733 122.261 111.233 122.261 113.9H86.5609C86.4943 114.367 86.4609 114.833 86.4609 115.3C86.4609 115.7 86.4609 116.133 86.4609 116.6C86.4609 120.067 86.8276 123.3 87.5609 126.3C88.3609 129.233 89.5609 131.767 91.1609 133.9C92.7609 136.033 94.7609 137.7 97.1609 138.9C99.6276 140.1 102.494 140.7 105.761 140.7C109.228 140.7 112.028 140.033 114.161 138.7C116.294 137.3 117.961 135.667 119.161 133.8C120.361 131.933 121.161 130 121.561 128C122.028 126 122.261 124.367 122.261 123.1H123.561C123.494 125.967 123.061 128.8 122.261 131.6C121.461 134.4 120.194 136.867 118.461 139C116.794 141.133 114.594 142.867 111.861 144.2C109.128 145.533 105.794 146.2 101.861 146.2ZM113.861 112.6C113.861 110.8 113.728 108.933 113.461 107C113.261 105.067 112.728 103.333 111.861 101.8C111.061 100.267 109.861 99 108.261 98C106.728 97 104.661 96.5 102.061 96.5C98.0609 96.5 94.6609 97.9667 91.8609 100.9C89.1276 103.833 87.4276 107.733 86.7609 112.6H113.861ZM131.051 130.6C131.051 127.133 131.817 124.3 133.351 122.1C134.884 119.9 136.717 118.2 138.851 117C141.051 115.733 143.351 114.867 145.751 114.4C148.151 113.933 150.184 113.7 151.851 113.7C155.051 113.7 157.617 114 159.551 114.6C161.551 115.2 163.217 115.967 164.551 116.9V111C164.551 109.6 164.317 108.233 163.851 106.9C163.384 105.5 162.617 104.267 161.551 103.2C160.484 102.067 159.051 101.167 157.251 100.5C155.451 99.8333 153.251 99.5 150.651 99.5C147.984 99.5 145.617 99.8667 143.551 100.6C141.484 101.267 139.751 102.233 138.351 103.5C136.951 104.7 135.884 106.133 135.151 107.8C134.484 109.4 134.151 111.167 134.151 113.1H132.851C132.851 109.833 133.451 107.033 134.651 104.7C135.851 102.3 137.384 100.367 139.251 98.9C141.117 97.3667 143.217 96.2667 145.551 95.6C147.951 94.8667 150.284 94.5 152.551 94.5C155.951 94.5 159.017 94.9 161.751 95.7C164.484 96.5 166.784 97.6333 168.651 99.1C170.584 100.567 172.051 102.333 173.051 104.4C174.051 106.4 174.551 108.6 174.551 111V135.3C174.551 137.9 174.851 139.933 175.451 141.4C176.117 142.867 177.417 143.6 179.351 143.6C180.551 143.6 181.551 143.333 182.351 142.8C183.151 142.2 183.784 141.5 184.251 140.7C184.784 139.833 185.151 138.933 185.351 138C185.617 137 185.751 136.1 185.751 135.3H187.051C187.051 136.7 186.884 138.067 186.551 139.4C186.217 140.667 185.617 141.833 184.751 142.9C183.884 143.9 182.717 144.7 181.251 145.3C179.784 145.9 177.917 146.2 175.651 146.2C171.517 146.2 168.617 145.433 166.951 143.9C165.351 142.367 164.551 139.9 164.551 136.5H164.151C163.217 138.233 162.084 139.733 160.751 141C159.484 142.2 158.084 143.2 156.551 144C155.084 144.733 153.551 145.267 151.951 145.6C150.417 146 148.917 146.2 147.451 146.2C144.851 146.2 142.517 145.8 140.451 145C138.451 144.267 136.751 143.2 135.351 141.8C133.951 140.4 132.884 138.767 132.151 136.9C131.417 134.967 131.051 132.867 131.051 130.6ZM152.051 140.7C153.651 140.7 155.217 140.433 156.751 139.9C158.284 139.367 159.617 138.567 160.751 137.5C161.884 136.433 162.784 135.1 163.451 133.5C164.184 131.9 164.551 130.033 164.551 127.9V118.7C162.951 117.367 160.951 116.4 158.551 115.8C156.217 115.2 153.984 114.967 151.851 115.1C149.917 115.233 148.251 115.7 146.851 116.5C145.517 117.233 144.417 118.2 143.551 119.4C142.684 120.533 142.051 121.833 141.651 123.3C141.251 124.7 141.051 126.1 141.051 127.5C141.051 131.567 141.951 134.8 143.751 137.2C145.617 139.533 148.384 140.7 152.051 140.7ZM207.335 95.7V106.2H207.735C208.268 105.133 208.868 103.933 209.535 102.6C210.202 101.2 211.068 99.9 212.135 98.7C213.268 97.5 214.635 96.5 216.235 95.7C217.835 94.9 219.768 94.5 222.035 94.5C223.568 94.5 224.868 94.6333 225.935 94.9C227.068 95.1 228.002 95.3333 228.735 95.6C229.602 96 230.368 96.4 231.035 96.8L233.835 109.9H232.535C231.202 106.367 229.468 104 227.335 102.8C225.202 101.533 222.502 100.9 219.235 100.9C218.168 100.9 217.102 101 216.035 101.2C214.968 101.4 213.902 101.867 212.835 102.6C211.768 103.267 210.768 104.267 209.835 105.6C208.902 106.933 208.068 108.7 207.335 110.9V138.7C207.468 140.833 208.102 142.2 209.235 142.8C210.368 143.4 212.102 143.7 214.435 143.7V145H190.235V143.7C192.635 143.7 194.402 143.4 195.535 142.8C196.735 142.133 197.335 140.633 197.335 138.3V106.3C197.335 104.3 196.602 102.867 195.135 102C193.668 101.067 191.635 100.6 189.035 100.6V99.3L207.335 95.7ZM238.328 95.7C241.061 95.3667 243.361 94.6333 245.228 93.5C247.095 92.3 248.661 90.9 249.928 89.3C251.195 87.7 252.161 85.9667 252.828 84.1C253.561 82.1667 254.095 80.2667 254.428 78.4H255.728V95.7H266.428V97H255.728V135.3C255.728 137.967 256.028 140 256.628 141.4C257.228 142.8 258.561 143.5 260.628 143.5C261.761 143.5 262.728 143.233 263.528 142.7C264.328 142.167 264.961 141.5 265.428 140.7C265.961 139.9 266.328 139.033 266.528 138.1C266.795 137.1 266.928 136.167 266.928 135.3H268.228C268.228 136.5 268.028 137.767 267.628 139.1C267.295 140.367 266.695 141.533 265.828 142.6C265.028 143.667 263.928 144.533 262.528 145.2C261.128 145.933 259.428 146.3 257.428 146.3C252.961 146.3 249.895 145.367 248.228 143.5C246.561 141.633 245.728 138.567 245.728 134.3V97H238.328V95.7ZM271.262 100.6V99.3L289.562 95.7V138.3C289.562 140.633 290.162 142.133 291.362 142.8C292.562 143.4 294.328 143.7 296.662 143.7V145H272.462V143.7C274.862 143.7 276.628 143.4 277.762 142.8C278.962 142.133 279.562 140.633 279.562 138.3V106.1C279.562 104.1 278.828 102.7 277.362 101.9C275.895 101.033 273.862 100.6 271.262 100.6ZM284.562 86.6C283.028 86.6 281.728 86.1 280.662 85.1C279.662 84.0333 279.162 82.7333 279.162 81.2C279.162 79.6667 279.662 78.4 280.662 77.4C281.728 76.3333 283.028 75.8 284.562 75.8C286.095 75.8 287.395 76.3333 288.462 77.4C289.528 78.4 290.062 79.6667 290.062 81.2C290.062 82.7333 289.528 84.0333 288.462 85.1C287.395 86.1 286.095 86.6 284.562 86.6ZM303.512 145V124.3H304.812C304.812 128.167 305.312 131.4 306.312 134C307.312 136.533 308.578 138.567 310.112 140.1C311.645 141.567 313.278 142.633 315.012 143.3C316.812 143.9 318.478 144.2 320.012 144.2C323.412 144.2 325.945 143.433 327.612 141.9C329.278 140.367 330.112 138.433 330.112 136.1C330.112 133.5 329.445 131.433 328.112 129.9C326.845 128.367 325.245 127.1 323.312 126.1C321.378 125.033 319.245 124.1 316.912 123.3C314.645 122.433 312.545 121.433 310.612 120.3C308.678 119.1 307.045 117.6 305.712 115.8C304.378 114 303.712 111.633 303.712 108.7C303.712 104.3 305.112 100.833 307.912 98.3C310.778 95.7667 314.578 94.5 319.312 94.5C320.912 94.5 322.312 94.7 323.512 95.1C324.778 95.5 325.878 95.9333 326.812 96.4C327.812 96.8 328.712 97.2 329.512 97.6C330.312 98 331.112 98.2 331.912 98.2C332.645 98.2 333.145 97.9667 333.412 97.5C333.678 96.9667 333.812 96.3667 333.812 95.7H335.112L335.212 112H333.812C333.812 109.867 333.512 107.867 332.912 106C332.312 104.067 331.412 102.4 330.212 101C329.078 99.6 327.678 98.5 326.012 97.7C324.345 96.8333 322.445 96.4 320.312 96.4C318.045 96.4 316.212 97.0333 314.812 98.3C313.478 99.5667 312.812 101.267 312.812 103.4C312.812 105.867 313.445 107.833 314.712 109.3C315.978 110.767 317.578 112.033 319.512 113.1C321.512 114.167 323.645 115.167 325.912 116.1C328.245 116.967 330.378 118.067 332.312 119.4C334.312 120.667 335.945 122.3 337.212 124.3C338.545 126.233 339.212 128.767 339.212 131.9C339.212 133.967 338.778 135.9 337.912 137.7C337.112 139.433 335.945 140.933 334.412 142.2C332.945 143.467 331.178 144.433 329.112 145.1C327.045 145.833 324.745 146.2 322.212 146.2C319.812 146.2 317.812 145.967 316.212 145.5C314.678 145.033 313.345 144.567 312.212 144.1C311.145 143.567 310.178 143.133 309.312 142.8C308.445 142.467 307.512 142.4 306.512 142.6C305.378 142.8 304.812 143.6 304.812 145H303.512ZM348.141 130.6C348.141 127.133 348.907 124.3 350.441 122.1C351.974 119.9 353.807 118.2 355.941 117C358.141 115.733 360.441 114.867 362.841 114.4C365.241 113.933 367.274 113.7 368.941 113.7C372.141 113.7 374.707 114 376.641 114.6C378.641 115.2 380.307 115.967 381.641 116.9V111C381.641 109.6 381.407 108.233 380.941 106.9C380.474 105.5 379.707 104.267 378.641 103.2C377.574 102.067 376.141 101.167 374.341 100.5C372.541 99.8333 370.341 99.5 367.741 99.5C365.074 99.5 362.707 99.8667 360.641 100.6C358.574 101.267 356.841 102.233 355.441 103.5C354.041 104.7 352.974 106.133 352.241 107.8C351.574 109.4 351.241 111.167 351.241 113.1H349.941C349.941 109.833 350.541 107.033 351.741 104.7C352.941 102.3 354.474 100.367 356.341 98.9C358.207 97.3667 360.307 96.2667 362.641 95.6C365.041 94.8667 367.374 94.5 369.641 94.5C373.041 94.5 376.107 94.9 378.841 95.7C381.574 96.5 383.874 97.6333 385.741 99.1C387.674 100.567 389.141 102.333 390.141 104.4C391.141 106.4 391.641 108.6 391.641 111V135.3C391.641 137.9 391.941 139.933 392.541 141.4C393.207 142.867 394.507 143.6 396.441 143.6C397.641 143.6 398.641 143.333 399.441 142.8C400.241 142.2 400.874 141.5 401.341 140.7C401.874 139.833 402.241 138.933 402.441 138C402.707 137 402.841 136.1 402.841 135.3H404.141C404.141 136.7 403.974 138.067 403.641 139.4C403.307 140.667 402.707 141.833 401.841 142.9C400.974 143.9 399.807 144.7 398.341 145.3C396.874 145.9 395.007 146.2 392.741 146.2C388.607 146.2 385.707 145.433 384.041 143.9C382.441 142.367 381.641 139.9 381.641 136.5H381.241C380.307 138.233 379.174 139.733 377.841 141C376.574 142.2 375.174 143.2 373.641 144C372.174 144.733 370.641 145.267 369.041 145.6C367.507 146 366.007 146.2 364.541 146.2C361.941 146.2 359.607 145.8 357.541 145C355.541 144.267 353.841 143.2 352.441 141.8C351.041 140.4 349.974 138.767 349.241 136.9C348.507 134.967 348.141 132.867 348.141 130.6ZM369.141 140.7C370.741 140.7 372.307 140.433 373.841 139.9C375.374 139.367 376.707 138.567 377.841 137.5C378.974 136.433 379.874 135.1 380.541 133.5C381.274 131.9 381.641 130.033 381.641 127.9V118.7C380.041 117.367 378.041 116.4 375.641 115.8C373.307 115.2 371.074 114.967 368.941 115.1C367.007 115.233 365.341 115.7 363.941 116.5C362.607 117.233 361.507 118.2 360.641 119.4C359.774 120.533 359.141 121.833 358.741 123.3C358.341 124.7 358.141 126.1 358.141 127.5C358.141 131.567 359.041 134.8 360.841 137.2C362.707 139.533 365.474 140.7 369.141 140.7ZM424.425 95.7V103.1C425.158 101.9 426.025 100.8 427.025 99.8C428.025 98.7333 429.158 97.8333 430.425 97.1C431.758 96.3 433.258 95.6667 434.925 95.2C436.592 94.7333 438.525 94.5 440.725 94.5C442.458 94.5 444.258 94.7667 446.125 95.3C447.992 95.7667 449.692 96.6 451.225 97.8C452.758 99 453.992 100.633 454.925 102.7C455.925 104.767 456.425 107.4 456.425 110.6V138.2C456.425 140.533 457.025 142.033 458.225 142.7C459.425 143.367 461.192 143.7 463.525 143.7V145H439.425V143.7C441.825 143.7 443.592 143.4 444.725 142.8C445.858 142.133 446.425 140.633 446.425 138.3V109C446.425 105.133 445.758 102.233 444.425 100.3C443.158 98.3 440.825 97.3 437.425 97.3C435.692 97.3 434.025 97.6333 432.425 98.3C430.892 98.9 429.525 99.7333 428.325 100.8C427.125 101.8 426.158 103 425.425 104.4C424.758 105.733 424.425 107.133 424.425 108.6V138.3C424.425 140.633 425.192 142.133 426.725 142.8C428.325 143.4 430.258 143.7 432.525 143.7V145H407.325V143.7C409.792 143.7 411.592 143.4 412.725 142.8C413.858 142.133 414.425 140.633 414.425 138.3V106.1C414.425 104.1 413.692 102.7 412.225 101.9C410.758 101.033 408.725 100.6 406.125 100.6V99.3L424.425 95.7ZM469.918 145V124.3H471.218C471.218 128.167 471.718 131.4 472.718 134C473.718 136.533 474.985 138.567 476.518 140.1C478.051 141.567 479.685 142.633 481.418 143.3C483.218 143.9 484.885 144.2 486.418 144.2C489.818 144.2 492.351 143.433 494.018 141.9C495.685 140.367 496.518 138.433 496.518 136.1C496.518 133.5 495.851 131.433 494.518 129.9C493.251 128.367 491.651 127.1 489.718 126.1C487.785 125.033 485.651 124.1 483.318 123.3C481.051 122.433 478.951 121.433 477.018 120.3C475.085 119.1 473.451 117.6 472.118 115.8C470.785 114 470.118 111.633 470.118 108.7C470.118 104.3 471.518 100.833 474.318 98.3C477.185 95.7667 480.985 94.5 485.718 94.5C487.318 94.5 488.718 94.7 489.918 95.1C491.185 95.5 492.285 95.9333 493.218 96.4C494.218 96.8 495.118 97.2 495.918 97.6C496.718 98 497.518 98.2 498.318 98.2C499.051 98.2 499.551 97.9667 499.818 97.5C500.085 96.9667 500.218 96.3667 500.218 95.7H501.518L501.618 112H500.218C500.218 109.867 499.918 107.867 499.318 106C498.718 104.067 497.818 102.4 496.618 101C495.485 99.6 494.085 98.5 492.418 97.7C490.751 96.8333 488.851 96.4 486.718 96.4C484.451 96.4 482.618 97.0333 481.218 98.3C479.885 99.5667 479.218 101.267 479.218 103.4C479.218 105.867 479.851 107.833 481.118 109.3C482.385 110.767 483.985 112.033 485.918 113.1C487.918 114.167 490.051 115.167 492.318 116.1C494.651 116.967 496.785 118.067 498.718 119.4C500.718 120.667 502.351 122.3 503.618 124.3C504.951 126.233 505.618 128.767 505.618 131.9C505.618 133.967 505.185 135.9 504.318 137.7C503.518 139.433 502.351 140.933 500.818 142.2C499.351 143.467 497.585 144.433 495.518 145.1C493.451 145.833 491.151 146.2 488.618 146.2C486.218 146.2 484.218 145.967 482.618 145.5C481.085 145.033 479.751 144.567 478.618 144.1C477.551 143.567 476.585 143.133 475.718 142.8C474.851 142.467 473.918 142.4 472.918 142.6C471.785 142.8 471.218 143.6 471.218 145H469.918Z" fill="#FEFEFE"/>
<path d="M543.665 83.9748C542.941 84.5173 538.18 86.5063 535.709 87.4104C531.043 89.2186 524.679 94.8241 522.509 99.1638C520.339 103.503 519.073 112.906 519.435 115.076C519.796 117.246 518.712 118.873 519.073 122.309C519.187 123.388 518.35 125.021 523.051 123.574C528 122.052 530.465 120.501 533.539 119.596C535.998 118.873 537.155 117.346 539.144 115.799C542.399 113.268 546.196 108.566 547.1 105.854C547.824 100.936 547.402 92.9556 547.1 89.5803C546.987 88.3145 546.558 86.3255 546.739 84.5173C546.944 82.4659 544.388 83.4324 543.665 83.9748Z" fill="#FEFEFE"/>
<path d="M548.005 75.2955C546.847 77.61 544.629 76.2599 543.665 75.2955C542.074 74.8615 539.385 72.3421 538.24 71.1366C535.166 69.6901 532.454 65.1695 531.912 63.5422C531.369 61.9148 533.162 52.1378 534.081 51.0656C535.166 49.7998 536.613 40.9396 537.517 40.0355C538.516 39.0369 540.953 31.537 543.665 33.7068C546.377 35.8767 547.281 38.0465 548.005 38.7698C548.644 39.4091 549.451 41.6629 551.44 44.7369C552.89 46.9783 554.695 50.8848 555.237 52.5121C556.865 60.649 555.237 63.1805 555.237 63.5422C555.237 63.9038 552.525 70.0517 551.983 70.0517C551.549 70.0517 549.15 73.5476 548.005 75.2955Z" fill="#FEFEFE"/>
<path d="M559.758 81.9858C558.601 81.2625 553.489 80.479 551.078 80.1776C551.259 80.3584 551.404 80.6116 550.536 80.1776C549.451 79.6351 549.632 78.0078 550.536 76.3804C551.44 74.753 551.983 72.9448 553.067 70.9558C554.152 68.9667 557.226 58.2983 571.692 56.3093C585.675 54.3867 585.615 56.1285 589.051 55.9477C591.799 55.803 593.029 56.671 593.39 57.0326C593.571 57.7559 593.39 58.66 592.667 59.7449C592.16 60.5061 589.895 64.2051 589.051 66.2544C585.253 70.775 586.7 68.7859 581.637 75.2955C576.574 81.805 573.319 81.2625 571.692 81.9858C570.065 82.7091 561.204 82.8899 559.758 81.9858Z" fill="#FEFEFE"/>
<path d="M553.758 107.074C549.407 106.428 548.66 91.5516 548.831 84.1941C549.057 83.3461 549.91 81.86 551.517 82.6995C553.123 83.539 559.314 83.8872 562.209 83.9563C571.123 86.8723 570.257 89.0578 573.372 91.3535C575.865 93.19 583.451 105.582 586.933 111.548C587.797 112.678 588.296 114.96 583.379 115.048C578.461 115.135 570.814 113.583 567.605 112.796C561.806 112.176 555.958 108.723 553.758 107.074Z" fill="#FEFEFE"/>
<path d="M544.026 79.8159C544.026 80.5392 542.761 81.4433 541.676 82.5282C540.772 83.2515 532.996 85.2406 530.465 86.6871C527.933 88.1337 521.786 87.9529 520.701 87.9529C519.616 87.9529 509.309 83.794 509.309 82.8899C509.309 81.9858 499.906 76.3804 497.736 74.9338C496.001 73.7765 497.736 72.4023 498.821 71.8599C498.821 70.7749 510.394 66.7969 512.202 65.8928C514.01 64.9887 523.775 62.638 529.922 66.7969C534.841 70.124 540.048 74.9338 542.037 76.9228C543.665 77.8269 544.026 78.9118 544.026 79.8159Z" fill="#FEFEFE"/>
</svg>
