<svg width="424" height="404" viewBox="0 0 424 404" fill="none" xmlns="http://www.w3.org/2000/svg">
<path d="M208.365 191.844C216.526 200.866 191.997 233.953 178.712 249.369C176.74 250.784 172.307 252.459 170.35 247.845C168.393 243.23 155.78 231.615 149.718 226.384C135.8 204.503 141.486 201.354 138.863 190.98C136.765 182.681 142.321 142.889 145.361 124.03C145.5 120.099 148.442 114.349 159.099 122.798C169.756 131.247 183.365 147.991 188.838 155.307C200.133 166.814 206.563 184.459 208.365 191.844Z" fill="#D0D0D0"/>
<path d="M259.544 262.047C253.486 272.597 214.438 259.494 195.671 251.623C193.716 250.185 190.753 246.486 194.537 243.199C198.32 239.912 205.47 224.327 208.571 216.945C225.08 196.946 229.832 201.381 238.888 195.681C246.132 191.12 285.693 184.107 304.568 181.17C308.35 180.088 314.727 181.109 309.986 193.855C305.244 206.602 293.525 224.719 288.258 232.185C280.805 246.484 266.01 258.051 259.544 262.047Z" fill="#D0D0D0"/>
<path d="M203.866 333.729C191.961 331.227 192.356 290.041 194.042 269.76C194.806 267.457 197.408 263.496 201.703 266.079C205.999 268.661 223.031 270.645 231.01 271.313C255.131 280.834 252.382 286.724 260.601 293.575C267.177 299.056 286.072 334.513 294.698 351.557C296.896 354.819 297.896 361.2 284.308 360.629C270.72 360.058 249.868 354.511 241.14 351.809C225.238 349.14 209.665 338.644 203.866 333.729Z" fill="#D0D0D0"/>
<path d="M119.594 297.566C118.295 285.47 157.587 273.119 177.396 268.456C179.823 268.471 184.394 269.721 183.265 274.604C182.136 279.488 185.513 296.299 187.343 304.094C185.742 329.977 179.291 329.182 175.315 339.116C172.135 347.064 144.252 375.991 130.707 389.462C128.285 392.56 122.525 395.483 118.869 382.384C115.213 369.284 114.044 347.739 113.917 338.603C111.542 322.654 116.712 304.6 119.594 297.566Z" fill="#D0D0D0"/>
<path d="M119.339 210.923C130.441 205.95 154.33 239.503 164.887 256.901C165.622 259.213 165.846 263.947 160.853 264.383C155.86 264.818 140.915 273.225 134.067 277.373C108.956 283.849 107.718 277.468 97.0414 276.757C88.4999 276.188 52.372 258.609 35.3757 249.89C31.6799 248.543 27.1205 243.969 38.4489 236.444C49.7774 228.919 69.9075 221.149 78.5565 218.205C92.9906 211.018 111.759 210.356 119.339 210.923Z" fill="#D0D0D0"/>
<line x1="293.415" y1="195.142" x2="361.109" y2="135.316" stroke="#D0D0D0" stroke-width="7.72161" stroke-linecap="round"/>
<path d="M289.422 111.145C300.252 97.5444 320.151 75.4415 304.411 62.6339C297.636 57.6366 283.879 56.5036 271.661 76.8004C271.14 77.6645 269.871 77.6616 269.378 76.7813C263.38 66.0525 254.463 51.7651 237.642 57.7651C230.59 60.2808 225.712 62.5585 222.504 71.7862C220.292 78.1501 221.212 94.6779 237.054 105.722C257.647 120.078 283.481 124.149 290.765 126.127C295.095 127.303 333.77 136.657 343.855 142.496C353.941 148.335 371.755 155.077 372.632 176.112C373.01 185.186 371.822 189.027 367.728 198.48C365.799 203.987 354.989 222.914 340.168 220.13C329.985 218.217 325.865 200.118 341.269 196.955C345.509 196.085 360.999 198.715 365.867 215.097C370.735 231.48 358.585 236.511 354.217 239.286C342.493 246.733 329.791 258.05 317.76 274.363C317.76 274.363 313.368 280.318 311.458 282.908" stroke="#D0D0D0" stroke-width="9.00855" stroke-linecap="round"/>
</svg>
