<svg width="367" height="322" viewBox="0 0 367 322" fill="none" xmlns="http://www.w3.org/2000/svg">
<line x1="250.229" y1="150.979" x2="310.653" y2="97.5773" stroke="#FEFEFE" stroke-width="6.89241" stroke-linecap="round"/>
<path d="M246.665 76.0013C256.332 63.8615 274.094 44.1322 260.044 32.6999C253.996 28.2393 241.717 27.2279 230.811 45.3451C230.346 46.1164 229.213 46.1138 228.773 45.328C223.419 35.7514 215.46 22.9983 200.446 28.354C194.151 30.5995 189.796 32.6326 186.933 40.8693C184.959 46.5499 185.78 61.3028 199.92 71.1606C218.302 83.9756 241.361 87.6089 247.863 89.3748C251.728 90.4245 286.25 98.7735 295.253 103.985C304.255 109.197 320.156 115.216 320.939 133.992C321.277 142.091 320.216 145.52 316.562 153.958C314.84 158.873 305.191 175.768 291.961 173.283C282.872 171.575 279.194 155.42 292.944 152.597C296.728 151.82 310.556 154.167 314.901 168.791C319.246 183.414 308.4 187.905 304.501 190.382C294.037 197.029 282.698 207.131 271.96 221.692C271.96 221.692 268.039 227.008 266.334 229.319" stroke="#FEFEFE" stroke-width="8.04115" stroke-linecap="round"/>
<path d="M129.036 210.084C127.036 211.584 113.87 217.084 107.036 219.584C94.1354 224.584 76.5363 240.084 70.5363 252.084C64.5363 264.084 61.0363 290.084 62.0364 296.084C63.0364 302.084 60.0363 306.584 61.0363 316.084C61.3504 319.068 59.0363 323.584 72.0364 319.584C85.721 315.373 92.5364 311.084 101.036 308.584C107.836 306.584 111.036 302.362 116.536 298.084C125.536 291.084 136.036 278.084 138.536 270.584C140.536 256.984 139.37 234.917 138.536 225.584C138.224 222.084 137.036 216.584 137.536 211.584C138.104 205.911 131.036 208.584 129.036 210.084Z" fill="#FEFEFE"/>
<path d="M141.036 186.084C137.836 192.484 131.703 188.751 129.036 186.084C124.636 184.884 117.203 177.917 114.036 174.584C105.536 170.584 98.0363 158.084 96.5363 153.584C95.0363 149.084 99.9949 122.049 102.536 119.084C105.536 115.584 109.536 91.084 112.036 88.584C114.798 85.8226 121.536 65.084 129.036 71.084C136.536 77.084 139.036 83.084 141.036 85.084C142.804 86.8517 145.036 93.084 150.536 101.584C154.547 107.782 159.536 118.584 161.036 123.084C165.536 145.584 161.036 152.584 161.036 153.584C161.036 154.584 153.536 171.584 152.036 171.584C150.836 171.584 144.203 181.251 141.036 186.084Z" fill="#FEFEFE"/>
<path d="M173.536 204.584C170.336 202.584 156.203 200.417 149.536 199.584C150.036 200.084 150.436 200.784 148.036 199.584C145.036 198.084 145.536 193.584 148.036 189.084C150.536 184.584 152.036 179.584 155.036 174.084C158.036 168.584 166.536 139.084 206.536 133.584C245.201 128.268 245.036 133.084 254.536 132.584C262.136 132.184 265.536 134.584 266.536 135.584C267.036 137.584 266.536 140.084 264.536 143.084C263.133 145.189 256.87 155.417 254.536 161.084C244.036 173.584 248.036 168.084 234.036 186.084C220.036 204.084 211.036 202.584 206.536 204.584C202.036 206.584 177.536 207.084 173.536 204.584Z" fill="#FEFEFE"/>
<path d="M156.947 273.958C144.913 272.172 142.849 231.035 143.321 210.69C143.946 208.345 146.306 204.236 150.748 206.558C155.19 208.879 172.31 209.842 180.315 210.033C204.962 218.096 202.569 224.139 211.183 230.487C218.074 235.566 239.053 269.832 248.681 286.33C251.071 289.454 252.45 295.764 238.852 296.006C225.254 296.248 204.108 291.956 195.234 289.78C179.201 288.065 163.029 278.517 156.947 273.958Z" fill="#FEFEFE"/>
<path d="M130.036 198.584C130.036 200.584 126.536 203.084 123.536 206.084C121.036 208.084 99.5363 213.584 92.5363 217.584C85.5363 221.584 68.5363 221.084 65.5363 221.084C62.5363 221.084 34.0363 209.584 34.0363 207.084C34.0363 204.584 8.03633 189.084 2.03633 185.084C-2.76367 181.884 2.03633 178.084 5.03633 176.584C5.03633 173.584 37.0363 162.584 42.0363 160.084C47.0363 157.584 74.0363 151.084 91.0363 162.584C104.636 171.784 119.036 185.084 124.536 190.584C129.036 193.084 130.036 196.084 130.036 198.584Z" fill="#FEFEFE"/>
</svg>
